<?xml version="1.0" encoding="UTF-8"?>
<svg version="1.1" xmlns="http://www.w3.org/2000/svg" width="166" height="166">
<path d="M0 0 C13.78675867 11.08164364 23.93540448 23.8195227 29.625 40.6875 C29.94339844 41.62078125 30.26179687 42.5540625 30.58984375 43.515625 C36.49013832 64.28901235 33.10028767 87.28668532 22.83203125 106.0234375 C19.68934125 111.4233159 15.85453234 116.10488059 11.625 120.6875 C11.01269531 121.39132813 10.40039062 122.09515625 9.76953125 122.8203125 C1.22615826 132.11054752 -10.50852768 138.67430313 -22.375 142.6875 C-23.28507812 143.00589844 -24.19515625 143.32429687 -25.1328125 143.65234375 C-46.32762381 149.78470916 -69.63882857 146.205088 -88.74609375 135.82421875 C-93.75236246 132.96071097 -98.1289005 129.58348252 -102.375 125.6875 C-103.13039063 125.02363281 -103.88578125 124.35976562 -104.6640625 123.67578125 C-114.31685589 114.70299564 -121.16850974 103.12551435 -125.375 90.6875 C-125.69339844 89.77742188 -126.01179688 88.86734375 -126.33984375 87.9296875 C-132.4638678 66.76370577 -128.6763861 44.36579706 -118.46484375 25.30078125 C-115.88835558 20.70936249 -112.81624849 16.66132266 -109.375 12.6875 C-108.73820312 11.8625 -108.10140625 11.0375 -107.4453125 10.1875 C-82.11117328 -20.40466812 -30.86457159 -22.35702942 0 0 Z " fill="#1CA1FB" transform="translate(129.375,14.3125)"/>
<path d="M0 0 C26.50325769 -1.0448276 26.50325769 -1.0448276 36 5 C36.73863281 5.46921875 37.47726563 5.9384375 38.23828125 6.421875 C42.99043795 9.75106953 47.00133563 13.81911802 51 18 C51.84111328 18.72123047 51.84111328 18.72123047 52.69921875 19.45703125 C54 21 54 21 54 25 C54.66 25 55.32 25 56 25 C57.80679587 29.62369023 58.21839082 33.42528653 58.125 38.375 C58.10695313 39.62023437 58.08890625 40.86546875 58.0703125 42.1484375 C58.04710938 43.08945313 58.02390625 44.03046875 58 45 C57.34 45 56.68 45 56 45 C55.896875 45.845625 55.79375 46.69125 55.6875 47.5625 C54.61992547 52.90037266 52.73037414 57.9452455 49 62 C48.34 62 47.68 62 47 62 C47 62.66 47 63.32 47 64 C46.34 64 45.68 64 45 64 C44.76667969 64.61746094 44.53335938 65.23492187 44.29296875 65.87109375 C42.63137921 68.60694359 41.2988345 69.00607846 38.3125 70.0625 C36.97058594 70.55363281 36.97058594 70.55363281 35.6015625 71.0546875 C34.74304688 71.36664063 33.88453125 71.67859375 33 72 C31.72464274 72.55216617 30.45306947 73.11325482 29.1875 73.6875 C22.82349184 76.30797395 16.50462835 76.26218378 9.69140625 76.5234375 C5.82462286 77.02264128 3.31025823 77.97290371 0 80 C-0.33 80.66 -0.66 81.32 -1 82 C-1.99 82 -2.98 82 -4 82 C-4 82.66 -4 83.32 -4 84 C-7.61973402 85.31626692 -10.09567131 86 -14 86 C-14 79.73 -14 73.46 -14 67 C-15.32 66.34 -16.64 65.68 -18 65 C-22.81536274 60.99775773 -26.2931627 56.63022159 -29 51 C-29 50.01 -29 49.02 -29 48 C-29.66 48 -30.32 48 -31 48 C-31.14700056 44.83383401 -31.23462106 41.66856018 -31.3125 38.5 C-31.35439453 37.613125 -31.39628906 36.72625 -31.43945312 35.8125 C-31.54723775 29.94901654 -30.66361969 26.42457802 -27.16210938 21.67993164 C-25.78687914 19.8947775 -25.78687914 19.8947775 -25.1875 16.9375 C-23.38934327 12.4894281 -19.95402904 9.64645904 -16 7 C-15.01 7 -14.02 7 -13 7 C-13 6.34 -13 5.68 -13 5 C-4.57142857 1.57142857 -4.57142857 1.57142857 0 2 C0 1.34 0 0.68 0 0 Z " fill="#1BA0FC" transform="translate(67,34)"/>
<path d="M0 0 C26.50325769 -1.0448276 26.50325769 -1.0448276 36 5 C36.73863281 5.46921875 37.47726563 5.9384375 38.23828125 6.421875 C42.99043795 9.75106953 47.00133563 13.81911802 51 18 C51.84111328 18.72123047 51.84111328 18.72123047 52.69921875 19.45703125 C54 21 54 21 54 25 C54.66 25 55.32 25 56 25 C57.80679587 29.62369023 58.21839082 33.42528653 58.125 38.375 C58.10695313 39.62023437 58.08890625 40.86546875 58.0703125 42.1484375 C58.04710938 43.08945313 58.02390625 44.03046875 58 45 C57.34 45 56.68 45 56 45 C55.896875 45.845625 55.79375 46.69125 55.6875 47.5625 C54.61992547 52.90037266 52.73037414 57.9452455 49 62 C48.34 62 47.68 62 47 62 C47 62.66 47 63.32 47 64 C46.34 64 45.68 64 45 64 C44.76667969 64.61746094 44.53335938 65.23492187 44.29296875 65.87109375 C42.63137921 68.60694359 41.2988345 69.00607846 38.3125 70.0625 C36.97058594 70.55363281 36.97058594 70.55363281 35.6015625 71.0546875 C34.74304688 71.36664063 33.88453125 71.67859375 33 72 C31.72464274 72.55216617 30.45306947 73.11325482 29.1875 73.6875 C22.82349184 76.30797395 16.50462835 76.26218378 9.69140625 76.5234375 C5.82462286 77.02264128 3.31025823 77.97290371 0 80 C-0.33 80.66 -0.66 81.32 -1 82 C-1.99 82 -2.98 82 -4 82 C-4 82.66 -4 83.32 -4 84 C-7.61973402 85.31626692 -10.09567131 86 -14 86 C-14 79.73 -14 73.46 -14 67 C-15.32 66.34 -16.64 65.68 -18 65 C-22.81536274 60.99775773 -26.2931627 56.63022159 -29 51 C-29 50.01 -29 49.02 -29 48 C-29.66 48 -30.32 48 -31 48 C-31.14700056 44.83383401 -31.23462106 41.66856018 -31.3125 38.5 C-31.35439453 37.613125 -31.39628906 36.72625 -31.43945312 35.8125 C-31.54723775 29.94901654 -30.66361969 26.42457802 -27.16210938 21.67993164 C-25.78687914 19.8947775 -25.78687914 19.8947775 -25.1875 16.9375 C-23.38934327 12.4894281 -19.95402904 9.64645904 -16 7 C-15.01 7 -14.02 7 -13 7 C-13 6.34 -13 5.68 -13 5 C-4.57142857 1.57142857 -4.57142857 1.57142857 0 2 C0 1.34 0 0.68 0 0 Z M-2 9 C-3.5971276 9.24018818 -5.20256504 9.4335955 -6.8125 9.5625 C-13.75912738 10.86897579 -17.99534709 15.40404433 -22 21 C-25.81086987 29.35858466 -27.08949736 41.38984271 -23.859375 50.0625 C-21.98815666 53.01871049 -20.12214662 54.91056739 -17.51855469 57.18652344 C-12.45760638 61.61598087 -9.2657821 64.71207004 -8.75 71.75 C-8.7769504 73.50177571 -8.83915186 75.25541629 -9 77 C-5.52233718 77.98589371 -5.52233718 77.98589371 -2.0859375 77.2578125 C-1.52132812 76.88398437 -0.95671875 76.51015625 -0.375 76.125 C3 74 3 74 6 73 C6 72.34 6 71.68 6 71 C6.93199219 71.04640625 7.86398438 71.0928125 8.82421875 71.140625 C17.68073584 71.39136563 25.84074003 70.95748537 34 67 C36.47306805 64.39244019 36.47306805 64.39244019 37 61 C37.59296875 60.91621094 38.1859375 60.83242187 38.796875 60.74609375 C41.64484718 59.7816209 42.51452849 58.48602461 44.25 56.0625 C44.77078125 55.35222656 45.2915625 54.64195313 45.828125 53.91015625 C47.17430996 52.0893713 47.17430996 52.0893713 47 50 C47.66 50 48.32 50 49 50 C52.77038422 41.04533749 51.55109083 30.87149708 48 22 C45.35093308 18.18011091 42.7656935 15.43161397 38.1875 14.3125 C37.465625 14.209375 36.74375 14.10625 36 14 C35.55914062 13.06994141 35.55914062 13.06994141 35.109375 12.12109375 C33.33183365 8.72248476 30.88558696 8.05444591 27.390625 6.76171875 C23.00016384 5.77538243 18.80159853 5.59535866 14.3125 5.5625 C13.50498291 5.55250977 12.69746582 5.54251953 11.86547852 5.53222656 C6.46851101 5.60982494 2.8671631 6.71999398 -2 9 Z " fill="#B9E0FE" transform="translate(67,34)"/>
<path d="M0 0 C0.66 0 1.32 0 2 0 C4.1543038 4.4399676 4.41745846 8.47418774 4.625 13.3125 C4.68300781 14.42334961 4.68300781 14.42334961 4.7421875 15.55664062 C4.83581705 17.37071309 4.91896851 19.18532116 5 21 C5.99 21 6.98 21 8 21 C7.23600368 27.26476981 5.34729824 33.27467583 1 38 C0.34 38 -0.32 38 -1 38 C-1 38.66 -1 39.32 -1 40 C-1.66 40 -2.32 40 -3 40 C-3.23332031 40.61746094 -3.46664062 41.23492187 -3.70703125 41.87109375 C-5.36862079 44.60694359 -6.7011655 45.00607846 -9.6875 46.0625 C-11.02941406 46.55363281 -11.02941406 46.55363281 -12.3984375 47.0546875 C-13.25695312 47.36664063 -14.11546875 47.67859375 -15 48 C-16.27535726 48.55216617 -17.54693053 49.11325482 -18.8125 49.6875 C-25.17650816 52.30797395 -31.49537165 52.26218378 -38.30859375 52.5234375 C-42.17537714 53.02264128 -44.68974177 53.97290371 -48 56 C-48.33 56.66 -48.66 57.32 -49 58 C-49.99 58 -50.98 58 -52 58 C-52 58.66 -52 59.32 -52 60 C-54.97 60.495 -54.97 60.495 -58 61 C-58 60.34 -58 59.68 -58 59 C-57.01 59 -56.02 59 -55 59 C-55 58.34 -55 57.68 -55 57 C-53.68 57 -52.36 57 -51 57 C-51.33 55.68 -51.66 54.36 -52 53 C-45.375 49 -45.375 49 -42 49 C-42 48.34 -42 47.68 -42 47 C-40.60201172 46.96132812 -40.60201172 46.96132812 -39.17578125 46.921875 C-30.57002338 46.53901014 -21.81681671 45.97861928 -14 42 C-12.27280676 39.51254744 -12.27280676 39.51254744 -11 37 C-10.21625 36.566875 -9.4325 36.13375 -8.625 35.6875 C-5.28928456 33.5431115 -4.00592229 31.06608101 -2.11328125 27.64453125 C-1.74589844 27.10183594 -1.37851563 26.55914062 -1 26 C-0.34 26 0.32 26 1 26 C2.87938613 17.07291587 2.09692037 8.79957653 0 0 Z " fill="#E0F2FE" transform="translate(115,58)"/>
<path d="M0 0 C0.99 0 1.98 0 3 0 C2.835 0.928125 2.67 1.85625 2.5 2.8125 C1.3006771 11.69106956 0.9519743 20.23470757 6 28 C8.48392742 30.59165105 11.17996202 32.96121075 13.83789062 35.37182617 C17.53181055 38.93950257 18.85722191 41.45061301 19.25 46.75 C19.2230496 48.50177571 19.16084814 50.25541629 19 52 C20.65 52.33 22.3 52.66 24 53 C24 53.99 24 54.98 24 56 C22.68 56 21.36 56 20 56 C20 56.66 20 57.32 20 58 C19.01 58 18.02 58 17 58 C17 58.99 17 59.98 17 61 C15.68 61 14.36 61 13 61 C13 54.73 13 48.46 13 42 C11.68 41.34 10.36 40.68 9 40 C3.33855199 35.54176801 -1.12526569 30.00914179 -3 23 C-3.56470753 16.67581097 -3.29257051 10.33252608 -3 4 C-2.34 4 -1.68 4 -1 4 C-0.67 2.68 -0.34 1.36 0 0 Z " fill="#C9E8FE" transform="translate(40,59)"/>
<path d="M0 0 C-1.98 0.33 -3.96 0.66 -6 1 C-6 1.99 -6 2.98 -6 4 C-4.80117188 3.67515625 -4.80117188 3.67515625 -3.578125 3.34375 C4.12311525 1.39132289 11.07291384 0.54543981 19 1 C20.27423828 1.06380859 20.27423828 1.06380859 21.57421875 1.12890625 C26.11866571 1.48194593 29.24023331 2.21049568 33 5 C32.34 5.33 31.68 5.66 31 6 C30.16339844 5.69707031 29.32679687 5.39414062 28.46484375 5.08203125 C24.07258118 3.71037766 20.13325689 3.66963152 15.5625 3.6875 C14.74201172 3.67138672 13.92152344 3.65527344 13.07617188 3.63867188 C7.5556134 3.634266 3.96831139 4.64595234 -1 7 C-2.61719629 7.26211438 -4.24342789 7.47667526 -5.875 7.625 C-12.39526461 8.8593707 -16.30972751 12.62452908 -20 18 C-22.84814727 24.95694989 -23.52179214 32.54655328 -24 40 C-24.33 40 -24.66 40 -25 40 C-25.20852314 33.59370576 -25.1583195 28.07027358 -23 22 C-23.99 22.33 -24.98 22.66 -26 23 C-26.33 23.99 -26.66 24.98 -27 26 C-27.66 26 -28.32 26 -29 26 C-29 32.27 -29 38.54 -29 45 C-29.33 45 -29.66 45 -30 45 C-30.14700056 41.83383401 -30.23462106 38.66856018 -30.3125 35.5 C-30.35439453 34.613125 -30.39628906 33.72625 -30.43945312 32.8125 C-30.54723775 26.94901654 -29.66361969 23.42457802 -26.16210938 18.67993164 C-24.78687914 16.8947775 -24.78687914 16.8947775 -24.1875 13.9375 C-22.38934327 9.4894281 -18.95402904 6.64645904 -15 4 C-14.01 4 -13.02 4 -12 4 C-12 3.34 -12 2.68 -12 2 C-10.75579353 1.4654744 -9.50429064 0.94791389 -8.25 0.4375 C-7.55390625 0.14746094 -6.8578125 -0.14257812 -6.140625 -0.44140625 C-3.69987216 -1.07831803 -2.3596345 -0.80248831 0 0 Z " fill="#A2D6FD" transform="translate(66,37)"/>
<path d="M0 0 C7.92 0 15.84 0 24 0 C24 0.99 24 1.98 24 3 C25.65 3 27.3 3 29 3 C29 3.66 29 4.32 29 5 C28.33991943 4.98952637 27.67983887 4.97905273 26.99975586 4.96826172 C23.97904338 4.9264214 20.95839213 4.90058529 17.9375 4.875 C16.37999023 4.84986328 16.37999023 4.84986328 14.79101562 4.82421875 C9.0702085 4.78789617 4.41486725 5.17604472 -1 7 C-4.4375 7.125 -4.4375 7.125 -7 7 C-7 6.01 -7 5.02 -7 4 C-6.030625 3.71125 -5.06125 3.4225 -4.0625 3.125 C-0.89335797 2.35785318 -0.89335797 2.35785318 0 0 Z " fill="#D3EBFE" transform="translate(67,34)"/>
<path d="M0 0 C0.33 1.32 0.66 2.64 1 4 C0.01 4.33 -0.98 4.66 -2 5 C-4.65038145 12.95114435 -6.10812977 25.98221301 -3 34 C-2.34 34.33 -1.68 34.66 -1 35 C-1 35.66 -1 36.32 -1 37 C-0.34 37 0.32 37 1 37 C2.62109375 38.64453125 2.62109375 38.64453125 4.4375 40.8125 C6.91435286 43.7838364 6.91435286 43.7838364 9.7109375 46.4375 C11.56119578 48.68023731 11.29878187 50.33126536 11.1875 53.1875 C11.16042969 54.08855469 11.13335937 54.98960938 11.10546875 55.91796875 C11.05326172 56.94857422 11.05326172 56.94857422 11 58 C14.465 57.505 14.465 57.505 18 57 C16.3125 59.0625 16.3125 59.0625 14 61 C11.35546875 60.62109375 11.35546875 60.62109375 9 60 C9.11794922 58.92685547 9.11794922 58.92685547 9.23828125 57.83203125 C9.37269398 52.36355541 8.84698256 48.57794518 5.109375 44.484375 C2.8225798 42.19500059 0.42657827 40.05358897 -1.99609375 37.91015625 C-5.66332952 34.55567714 -6.82235984 31.84791911 -7.30078125 26.87109375 C-7.36611719 7.72766311 -7.36611719 7.72766311 -1.890625 1.6640625 C-1.26671875 1.11492188 -0.6428125 0.56578125 0 0 Z " fill="#57B6FC" transform="translate(49,51)"/>
<path d="M0 0 C0.66 0 1.32 0 2 0 C4.1543038 4.4399676 4.41745846 8.47418774 4.625 13.3125 C4.66367188 14.05306641 4.70234375 14.79363281 4.7421875 15.55664062 C4.83581705 17.37071309 4.91896851 19.18532116 5 21 C5.99 21 6.98 21 8 21 C7.2159053 27.42957652 5.19603268 33.00472299 1 38 C0.34 37.67 -0.32 37.34 -1 37 C-0.360625 36.29875 0.27875 35.5975 0.9375 34.875 C3.16386102 31.77158767 3.65080943 29.75379861 4 26 C1.64583333 26.92708333 1.64583333 26.92708333 0.4375 30.125 C-2.21084453 35.02595942 -6.52322971 37.85286875 -11 41 C-11.66 40.67 -12.32 40.34 -13 40 C-11 37 -11 37 -8.6875 35.8125 C-5.3625322 33.57007986 -4.02848661 31.10687319 -2.11328125 27.64453125 C-1.74589844 27.10183594 -1.37851563 26.55914062 -1 26 C-0.34 26 0.32 26 1 26 C2.87938613 17.07291587 2.09692037 8.79957653 0 0 Z " fill="#B2DCFE" transform="translate(115,58)"/>
<path d="M0 0 C2.475 0.495 2.475 0.495 5 1 C5.33 4.96 5.66 8.92 6 13 C7.65 13.33 9.3 13.66 11 14 C11 14.99 11 15.98 11 17 C9.68 17 8.36 17 7 17 C7 17.66 7 18.32 7 19 C6.01 19 5.02 19 4 19 C4 19.66 4 20.32 4 21 C3.01 21 2.02 21 1 21 C0.67 14.07 0.34 7.14 0 0 Z " fill="#DAEFFE" transform="translate(53,98)"/>
<path d="M0 0 C7.76664658 2.06053889 13.98709283 4.57371792 20 10 C19.01 10.495 19.01 10.495 18 11 C18.680625 12.11375 18.680625 12.11375 19.375 13.25 C20.68640796 15.46930578 21.88280803 17.67967822 23 20 C22.113125 19.21625 21.22625 18.4325 20.3125 17.625 C18.2869053 15.91798475 16.95999273 14.9853632 14.4375 14.0625 C10.96627338 12.54940122 9.36021131 9.90487546 7 7 C4.85019503 5.62745412 4.85019503 5.62745412 3 5 C3.66 4.67 4.32 4.34 5 4 C5 3.34 5 2.68 5 2 C3.35 2 1.7 2 0 2 C0 1.34 0 0.68 0 0 Z " fill="#DAEFFE" transform="translate(91,35)"/>
<path d="M0 0 C1.16080078 0.01804687 2.32160156 0.03609375 3.51757812 0.0546875 C6.36674747 0.10158741 9.21418531 0.16720941 12.0625 0.25 C7.56748257 4.74501743 -0.26950662 3.54426463 -6.24609375 3.7734375 C-10.11287714 4.27264128 -12.62724177 5.22290371 -15.9375 7.25 C-16.2675 7.91 -16.5975 8.57 -16.9375 9.25 C-17.9275 9.25 -18.9175 9.25 -19.9375 9.25 C-19.9375 9.91 -19.9375 10.57 -19.9375 11.25 C-21.9175 11.58 -23.8975 11.91 -25.9375 12.25 C-25.9375 11.59 -25.9375 10.93 -25.9375 10.25 C-24.9475 10.25 -23.9575 10.25 -22.9375 10.25 C-22.9375 9.59 -22.9375 8.93 -22.9375 8.25 C-21.6175 8.25 -20.2975 8.25 -18.9375 8.25 C-19.2675 6.93 -19.5975 5.61 -19.9375 4.25 C-13.49313668 -0.50143188 -7.81235059 -0.23095067 0 0 Z " fill="#C7E7FE" transform="translate(82.9375,106.75)"/>
<path d="M0 0 C0.99 0 1.98 0 3 0 C2.84660156 0.96035156 2.69320312 1.92070313 2.53515625 2.91015625 C1.89288765 7.40603647 1.66031389 11.90451572 1.4375 16.4375 C1.39431641 17.26443359 1.35113281 18.09136719 1.30664062 18.94335938 C1.20161967 20.96209549 1.10041441 22.98102951 1 25 C-1.31316656 23.30610638 -2.83186747 21.97994403 -3.33007812 19.07617188 C-3.3934207 16.78970912 -3.34853117 14.53516518 -3.25 12.25 C-3.23195312 11.45722656 -3.21390625 10.66445312 -3.1953125 9.84765625 C-3.14833082 7.89791652 -3.07659044 5.94880122 -3 4 C-2.34 4 -1.68 4 -1 4 C-0.67 2.68 -0.34 1.36 0 0 Z " fill="#DCEFFE" transform="translate(40,59)"/>
<path d="M0 0 C0 0.99 0 1.98 0 3 C-5.38207077 5.24105897 -10.15745544 5.23693988 -15.875 5.125 C-16.75414063 5.11597656 -17.63328125 5.10695313 -18.5390625 5.09765625 C-20.6928271 5.07424577 -22.84645014 5.0383801 -25 5 C-25 4.01 -25 3.02 -25 2 C-23.41058594 1.90912109 -23.41058594 1.90912109 -21.7890625 1.81640625 C-20.40102779 1.73199873 -19.01300768 1.64735083 -17.625 1.5625 C-16.92632812 1.52318359 -16.22765625 1.48386719 -15.5078125 1.44335938 C-10.03054718 1.10103029 -5.5949148 -0.09024056 0 0 Z " fill="#DBEFFE" transform="translate(98,103)"/>
<path d="M0 0 C0.85335937 0.04253906 1.70671875 0.08507813 2.5859375 0.12890625 C7.12530162 0.48330843 10.24433919 1.21354198 14 4 C13.34 4.33 12.68 4.66 12 5 C11.16339844 4.69707031 10.32679687 4.39414062 9.46484375 4.08203125 C5.07258118 2.71037766 1.13325689 2.66963152 -3.4375 2.6875 C-4.25798828 2.67138672 -5.07847656 2.65527344 -5.92382812 2.63867188 C-11.42138993 2.63428436 -15.07130116 3.59123741 -20 6 C-21.98821313 6.39764263 -23.98732362 6.75455166 -26 7 C-19.98311429 -0.93134935 -9.00733177 -0.49770971 0 0 Z " fill="#8CCCFD" transform="translate(85,38)"/>
<path d="M0 0 C-1.13471468 3.40414403 -2.17225987 4.24276648 -4.875 6.5 C-7.85384531 9.00265321 -7.85384531 9.00265321 -10.6328125 11.71875 C-12 13 -12 13 -14 13 C-13.49445676 8.57649669 -12.04984798 6.21928398 -9 3 C-5.54072205 0.49202349 -4.38746624 0 0 0 Z " fill="#E1F2FE" transform="translate(58,42)"/>
<path d="M0 0 C0.66 0 1.32 0 2 0 C5.54589528 7.09179055 3.32410655 19.90456529 0.94921875 27.1171875 C-0.0896759 29.17787566 -1.28503504 30.47238415 -3 32 C-3.66 31.67 -4.32 31.34 -5 31 C-4.72285156 30.39671875 -4.44570312 29.7934375 -4.16015625 29.171875 C-3.79792969 28.37265625 -3.43570313 27.5734375 -3.0625 26.75 C-2.70285156 25.96109375 -2.34320313 25.1721875 -1.97265625 24.359375 C-1.09966721 22.24176302 -0.48661492 20.23330638 0 18 C0.66 18 1.32 18 2 18 C1.85860519 15.74971671 1.71171997 13.49977794 1.5625 11.25 C1.48128906 9.99703125 1.40007812 8.7440625 1.31640625 7.453125 C1.07484478 4.81682447 0.75716066 2.51962706 0 0 Z " fill="#39AAFC" transform="translate(123,61)"/>
<path d="M0 0 C0.6875 1.6875 0.6875 1.6875 1 4 C-0.8167672 7.72915372 -3.36138548 10.81546523 -6 14 C-7.32 13.67 -8.64 13.34 -10 13 C-8.54453498 9.60391496 -6.59139701 7.59139701 -4 5 C-3.31822584 3.67432801 -2.64808564 2.34246312 -2 1 C-1.34 0.67 -0.68 0.34 0 0 Z " fill="#E5F3FE" transform="translate(119,83)"/>
<path d="M0 0 C4.2726657 0.47474063 6.273802 2.84334968 9 6 C10.75088294 9.41839049 11 11.06384019 11 15 C10.34 15 9.68 15 9 15 C9 13.68 9 12.36 9 11 C8.34 11 7.68 11 7 11 C7 10.34 7 9.68 7 9 C6.34 9 5.68 9 5 9 C0 3.64285714 0 3.64285714 0 0 Z " fill="#E6F4FE" transform="translate(109,46)"/>
<path d="M0 0 C0.74958984 0.00902344 1.49917969 0.01804688 2.27148438 0.02734375 C4.11862654 0.05087422 5.96560412 0.08674439 7.8125 0.125 C7.8125 0.785 7.8125 1.445 7.8125 2.125 C9.4625 2.125 11.1125 2.125 12.8125 2.125 C12.8125 2.785 12.8125 3.445 12.8125 4.125 C6.1875 4.25 6.1875 4.25 2.8125 3.125 C0.41995424 2.89939324 -1.97678123 2.71651405 -4.375 2.5625 C-5.64730469 2.47871094 -6.91960937 2.39492188 -8.23046875 2.30859375 C-9.20628906 2.24800781 -10.18210937 2.18742187 -11.1875 2.125 C-7.39586973 -0.40275351 -4.37875969 -0.09943035 0 0 Z " fill="#F5FAFE" transform="translate(83.1875,34.875)"/>
<path d="M0 0 C2 1 2 1 2.609375 2.68359375 C3.08419893 5.49929965 3.20753765 8.20690665 3.25 11.0625 C3.27578125 12.10535156 3.3015625 13.14820312 3.328125 14.22265625 C3 17 3 17 0 20 C0 13.4 0 6.8 0 0 Z " fill="#F4FAFE" transform="translate(120,62)"/>
<path d="M0 0 C2.31082041 4.45658222 4 7.90360271 4 13 C1.34122043 12.63327178 0.20164528 12.20911362 -1.6875 10.25 C-3.11211469 7.80780338 -3.61312661 5.7854884 -4 3 C-2.515 3.99 -2.515 3.99 -1 5 C-0.67 3.35 -0.34 1.7 0 0 Z " fill="#D2EBFE" transform="translate(41,77)"/>
<path d="M0 0 C-1.98 0.33 -3.96 0.66 -6 1 C-6 1.99 -6 2.98 -6 4 C-5.01 4.33 -4.02 4.66 -3 5 C-4.32 5.99 -5.64 6.98 -7 8 C-7.66 7.67 -8.32 7.34 -9 7 C-8.67 6.34 -8.34 5.68 -8 5 C-9.1446875 5.495 -9.1446875 5.495 -10.3125 6 C-13 7 -13 7 -16 7 C-13.2201101 2.71433641 -10.63151593 1.10153911 -6 -0.6171875 C-3.69057943 -1.05922503 -2.21563994 -0.72206123 0 0 Z " fill="#B2DEFE" transform="translate(66,37)"/>
<path d="M0 0 C0.66 0.33 1.32 0.66 2 1 C-2.60136502 6.53601728 -7.46398272 11.39863498 -13 16 C-13 11.38794096 -10.11229546 9.20006084 -7 6 C-4.7269604 3.92205163 -2.39561112 1.93491668 0 0 Z " fill="#64BBFA" transform="translate(31,16)"/>
<path d="M0 0 C0.75 1.5625 0.75 1.5625 1 4 C-1.73510187 10.58910904 -6.25650024 13.96236876 -12 18 C-12.66 17.67 -13.32 17.34 -14 17 C-12 14 -12 14 -9.6875 12.8125 C-6.3625322 10.57007986 -5.02848661 8.10687319 -3.11328125 4.64453125 C-2.56220703 3.83048828 -2.56220703 3.83048828 -2 3 C-1.34 3 -0.68 3 0 3 C0 2.01 0 1.02 0 0 Z " fill="#70C0FD" transform="translate(116,81)"/>
<path d="M0 0 C0.33 0 0.66 0 1 0 C1.33 6.6 1.66 13.2 2 20 C-1 17 -1 17 -1.328125 13.2421875 C-1.31751718 11.78626406 -1.29092476 10.3303868 -1.25 8.875 C-1.24484375 8.13378906 -1.2396875 7.39257812 -1.234375 6.62890625 C-1.15430775 1.15430775 -1.15430775 1.15430775 0 0 Z " fill="#F3F9FE" transform="translate(39,64)"/>
<path d="M0 0 C0 0.99 0 1.98 0 3 C1.32 3 2.64 3 4 3 C4 3.66 4 4.32 4 5 C3.34 5 2.68 5 2 5 C1.79375 5.61875 1.5875 6.2375 1.375 6.875 C-0.54775888 9.84653645 -2.66594527 10.13024659 -6 11 C-6 10.34 -6 9.68 -6 9 C-4.68 8.67 -3.36 8.34 -2 8 C-2 7.34 -2 6.68 -2 6 C-2.99 5.34 -3.98 4.68 -5 4 C-3.35 2.68 -1.7 1.36 0 0 Z " fill="#A5D7FE" transform="translate(110,93)"/>
<path d="M0 0 C2.97 0.495 2.97 0.495 6 1 C6 1.66 6 2.32 6 3 C6.66 3 7.32 3 8 3 C8.804375 3.969375 9.60875 4.93875 10.4375 5.9375 C12.70684377 9.19375327 12.70684377 9.19375327 16 10 C15.67 11.32 15.34 12.64 15 14 C14.41992188 13.39671875 13.83984375 12.7934375 13.2421875 12.171875 C9.0503786 7.88322563 5.10487685 4.14146267 0 1 C0 0.67 0 0.34 0 0 Z " fill="#64BBFD" transform="translate(102,38)"/>
<path d="M0 0 C2.97 0 5.94 0 9 0 C9 0.99 9 1.98 9 3 C7.68 3 6.36 3 5 3 C5 3.66 5 4.32 5 5 C3.35 5.33 1.7 5.66 0 6 C0 4.02 0 2.04 0 0 Z " fill="#EFF8FE" transform="translate(55,112)"/>
<path d="M0 0 C2.125 0.375 2.125 0.375 4 1 C4 1.66 4 2.32 4 3 C4.66 3.33 5.32 3.66 6 4 C6.72159424 5.64363134 7.39351421 7.31050386 8 9 C4.05860922 7.33248852 1.2107188 4.77289351 -2 2 C-1.34 1.34 -0.68 0.68 0 0 Z " fill="#41A6F3" transform="translate(28,137)"/>
<path d="M0 0 C0.66 0 1.32 0 2 0 C4.20949832 4.41029783 4.2370648 8.48940324 4.125 13.3125 C4.11597656 14.05306641 4.10695313 14.79363281 4.09765625 15.55664062 C4.07424213 17.37123467 4.03837615 19.18566071 4 21 C3.34 21.33 2.68 21.66 2 22 C2.02320312 21.24976562 2.04640625 20.49953125 2.0703125 19.7265625 C2.19119636 12.87072063 1.64936127 6.65635083 0 0 Z " fill="#68BDFD" transform="translate(115,58)"/>
<path d="M0 0 C0.33 0 0.66 0 1 0 C1 3.3 1 6.6 1 10 C4.465 9.505 4.465 9.505 8 9 C6.25 11 6.25 11 4 13 C2.68 13 1.36 13 0 13 C0 8.71 0 4.42 0 0 Z " fill="#50B4FD" transform="translate(59,99)"/>
<path d="M0 0 C5.3732231 2.47994912 9.97062369 5.66067166 14 10 C13.67 10.66 13.34 11.32 13 12 C12.278125 11.21625 11.55625 10.4325 10.8125 9.625 C8.25693133 6.90882134 8.25693133 6.90882134 5.375 6 C2.25633238 4.68687679 1.48137509 2.96275017 0 0 Z " fill="#7FC6FD" transform="translate(100,43)"/>
<path d="M0 0 C2.31 1.98 4.62 3.96 7 6 C3.47190093 6 2.53184488 5.35723489 0 3 C0 2.01 0 1.02 0 0 Z M-3 3 C-2.01 3 -1.02 3 0 3 C0.33 4.65 0.66 6.3 1 8 C-1 6.625 -1 6.625 -3 5 C-3 4.34 -3 3.68 -3 3 Z " fill="#B5DEFD" transform="translate(45,87)"/>
<path d="M0 0 C-0.33 0.66 -0.66 1.32 -1 2 C-3.72265625 2.8515625 -3.72265625 2.8515625 -7.0625 3.625 C-8.16722656 3.88539062 -9.27195313 4.14578125 -10.41015625 4.4140625 C-11.26480469 4.60742188 -12.11945312 4.80078125 -13 5 C-8.78969202 0.49932596 -6.1058964 -0.13568659 0 0 Z " fill="#57B6FC" transform="translate(72,40)"/>
<path d="M0 0 C0.66 0.33 1.32 0.66 2 1 C0.73657512 2.48549956 -0.5360103 3.96321189 -1.8125 5.4375 C-2.52019531 6.26121094 -3.22789063 7.08492187 -3.95703125 7.93359375 C-6 10 -6 10 -9 11 C-8.46324097 7.14896699 -6.88399077 5.68202413 -3.9375 3.25 C-3.20402344 2.63640625 -2.47054687 2.0228125 -1.71484375 1.390625 C-1.14894531 0.93171875 -0.58304688 0.4728125 0 0 Z " fill="#6EC0FD" transform="translate(51,41)"/>
<path d="M0 0 C2.475 0.99 2.475 0.99 5 2 C5 3.98 5 5.96 5 8 C2.5 5.6875 2.5 5.6875 0 3 C0 2.01 0 1.02 0 0 Z " fill="#46A4EE" transform="translate(17,126)"/>
<path d="M0 0 C0.99 0.66 1.98 1.32 3 2 C1.02 4.97 1.02 4.97 -1 8 C-1.99 7.34 -2.98 6.68 -4 6 C-3.34 6 -2.68 6 -2 6 C-1.855625 5.195625 -1.71125 4.39125 -1.5625 3.5625 C-1 1 -1 1 0 0 Z " fill="#50AFF8" transform="translate(150,117)"/>
<path d="M0 0 C0.99 0.495 0.99 0.495 2 1 C2 1.99 2 2.98 2 4 C3.32 3.67 4.64 3.34 6 3 C6 4.32 6 5.64 6 7 C5.34 7 4.68 7 4 7 C3.67 7.66 3.34 8.32 3 9 C2.01 6.03 1.02 3.06 0 0 Z " fill="#4EA9F1" transform="translate(6,108)"/>
<path d="M0 0 C0 0.66 0 1.32 0 2 C-0.99 2 -1.98 2 -3 2 C-3 2.66 -3 3.32 -3 4 C-4.98 4.33 -6.96 4.66 -9 5 C-9 4.34 -9 3.68 -9 3 C-8.01 3 -7.02 3 -6 3 C-6 2.34 -6 1.68 -6 1 C-3.92446352 0.4465236 -2.15634036 0 0 0 Z " fill="#85C9FD" transform="translate(66,114)"/>
<path d="M0 0 C2.0625 0.4375 2.0625 0.4375 4 1 C3.67 1.33 3.34 1.66 3 2 C3.66 2.66 4.32 3.32 5 4 C2 6 2 6 -0.1875 5.625 C-0.785625 5.41875 -1.38375 5.2125 -2 5 C-1.01 5 -0.02 5 1 5 C1 4.01 1 3.02 1 2 C0.34 1.67 -0.32 1.34 -1 1 C-0.67 0.67 -0.34 0.34 0 0 Z " fill="#C1E4FE" transform="translate(97,101)"/>
<path d="M0 0 C1.32 0 2.64 0 4 0 C3.67 0.99 3.34 1.98 3 3 C1.35 3.33 -0.3 3.66 -2 4 C-1.34 2.68 -0.68 1.36 0 0 Z " fill="#EAF6FE" transform="translate(54,42)"/>
</svg>
